<?xml version="1.0" encoding="utf-8"?>
<!-- Generator: Adobe Illustrator 26.0.1, SVG Export Plug-In . SVG Version: 6.00 Build 0)  -->
<svg version="1.1" id="Layer_1" xmlns="http://www.w3.org/2000/svg" xmlns:xlink="http://www.w3.org/1999/xlink" x="0px" y="0px"
	 viewBox="0 0 612 792" style="enable-background:new 0 0 612 792;" xml:space="preserve">
<style type="text/css">
	.st0{fill:#767978;}
	.st1{fill:#FBFBFB;}
	.st2{fill:#00A8E1;}
</style>
<g>
	<path class="st0" d="M298.93,479.96c-25.98,0-51.95,0.01-77.93,0c-7.46,0-9.89-2.36-9.9-9.78c-0.04-19.63-0.04-39.27,0-58.9
		c0.02-6.88,2.42-9.17,9.37-9.18c17.82-0.01,35.64,0,53.46,0c1.17,0,2.39,0.21,3.48-0.08c0.88-0.24,1.6-1.08,2.39-1.66
		c-0.86-0.52-1.66-1.29-2.59-1.51c-1.1-0.27-2.32-0.07-3.48-0.07c-16.32,0-32.64,0.02-48.96-0.01c-6.19-0.01-6.84-0.69-6.86-6.91
		c-0.02-9.65-0.03-19.3,0.01-28.95c0.02-5.28,1.15-6.46,6.45-6.47c17.99-0.04,35.97-0.04,53.96,0c5.19,0.01,6.37,1.25,6.41,6.55
		c0.05,7.32,0.01,14.64,0.01,21.96c0,1.16-0.14,2.36,0.09,3.48c0.13,0.63,0.87,1.14,1.33,1.71c0.29-0.51,0.76-1.01,0.83-1.55
		c0.14-1.15,0.08-2.32,0.08-3.49c0-10.48,0.11-20.97-0.07-31.45c-0.05-3.19,0.74-4.31,4.14-4.3c28.97,0.13,57.95,0.04,86.92,0.09
		c6.37,0.01,8.82,2.5,8.82,8.74c0.02,37.77,0.02,75.54,0,113.31c0,6.03-2.4,8.43-8.52,8.44
		C351.88,479.98,325.4,479.96,298.93,479.96z"/>
	<path class="st1" d="M384.86,414.8c0,18.47,0.01,36.95,0,55.42c0,6.27-1.38,7.71-7.53,7.72c-21.49,0.02-42.98-0.07-64.47,0.09
		c-3.6,0.03-4.91-0.76-4.88-4.65c0.18-22.13,0.18-44.27,0-66.41c-0.03-3.87,1.24-4.73,4.86-4.67c7.98,0.13,15.96,0.15,23.93,0.13
		c3.99-0.01,7.98-0.03,11.97-0.06c2.06-0.01,8.31,0.25,6.79-3.82c-0.77-2.06-3.91-2.21-5.7-2.21c-12.33-0.02-24.66-0.12-36.98,0.06
		c-3.49,0.05-5-0.5-4.9-4.55c0.3-11.98,0.22-23.97,0.04-35.95c-0.05-3.45,0.92-4.57,4.47-4.54c21.49,0.15,42.98,0.04,64.47,0.09
		c6.47,0.01,7.93,1.56,7.93,7.92C384.87,377.85,384.86,396.33,384.86,414.8z"/>
	<path class="st1" d="M252.41,404.09c10.33,0,20.66,0.21,30.97-0.1c3.94-0.12,4.7,1.21,4.58,4.79c-0.26,7.81,0.03,15.64-0.14,23.46
		c-0.06,2.95,0.68,4.11,3.88,4.08c4.69-0.04,4.98,0.47,5,5.29c0.05,9.15,0.04,18.3,0,27.45c-0.02,4.58-0.71,5.32-4.98,5.63
		c-1.75,0.13-3.73-0.46-4.16,2.32c-0.07,0.46-1.94,0.9-2.97,0.9c-21.65,0.05-43.3,0.07-64.95,0.01c-4.42-0.01-6.47-1.9-6.5-6.42
		c-0.12-20.3-0.11-40.6-0.02-60.9c0.02-4.8,1.95-6.48,6.8-6.5C230.76,404.06,241.59,404.09,252.41,404.09z"/>
	<path class="st2" d="M251.2,396.95c-8.82,0-17.63-0.13-26.44,0.06c-3.66,0.08-4.99-1.12-4.91-4.87c0.21-9.63,0.2-19.28,0.01-28.91
		c-0.07-3.7,1.24-4.96,4.92-4.93c17.8,0.13,35.59,0.11,53.39,0.01c3.45-0.02,4.73,1.26,4.68,4.69c-0.14,9.8-0.15,19.61,0.01,29.41
		c0.06,3.51-1.29,4.65-4.71,4.59C269.17,396.85,260.19,396.95,251.2,396.95z"/>
	<path class="st2" d="M328.4,400.31c-6.71,0-13.43,0.01-20.14-0.03c-1.56-0.01-3.09,0.09-4.42-0.88c-0.12-0.09,1.57-0.98,1.73-1.03
		c0.74-0.2,1.43-0.07,2.18-0.07c13.93,0,27.86,0,41.8,0c1.36,0,2.59-0.18,3.61,0.96c0.06,0.07,0.13,0.16,0.13,0.25
		c0,0.15-0.16,0.24-0.29,0.3c-1.08,0.47-2.13,0.45-3.27,0.46c-1.34,0.02-2.68,0.02-4.02,0.02c-2.78,0.01-5.57,0-8.35,0.01
		C334.37,400.32,331.39,400.32,328.4,400.31z"/>
	<path class="st0" d="M255.43,473.15c-11.81,0-23.61-0.09-35.41,0.06c-3.63,0.05-5.1-1.18-5.03-4.89
		c0.16-8.47,0.02-16.94,0.06-25.42c0.03-5.01,0.64-5.6,5.89-5.6c19.95-0.02,39.9,0,59.86-0.02c2.82,0,5.64-0.17,8.46-0.31
		c5.3-0.25,6.7,0.89,6.76,6.04c0.09,8.31,0.08,16.61,0,24.92c-0.05,4.65-1,5.45-5.67,5.45c-11.63-0.01-23.27,0-34.9,0
		C255.43,473.3,255.43,473.22,255.43,473.15z"/>
</g>
</svg>
